<?xml version="1.0" encoding="UTF-8"?>
<svg version="1.1" xmlns="http://www.w3.org/2000/svg" width="500" height="500">
<path d="M0 0 C165 0 330 0 500 0 C500 165 500 330 500 500 C335 500 170 500 0 500 C0 335 0 170 0 0 Z " fill="#FEFEFD" transform="translate(0,0)"/>
<path d="M0 0 C0.9890332 0.48122314 0.9890332 0.48122314 1.99804688 0.97216797 C19.17558358 9.41936322 33.75995865 21.31045026 48 34 C46.63696103 37.15543521 45.1817387 38.93188133 42.5 41.0625 C40.06335088 43.00872186 38.77737879 44.33393182 37 47 C34.21484375 48.1328125 34.21484375 48.1328125 30.9375 49.125 C27.17461158 50.02720543 27.17461158 50.02720543 24 52 C25.32 52.66 26.64 53.32 28 54 C29.02725248 60.60376597 26.32503293 64.30746056 22.7265625 69.7421875 C21 72 21 72 19 73 C18.34786708 75.02463255 18.34786708 75.02463255 18 77 C16.68 77 15.36 77 14 77 C13.566875 75.7934375 13.566875 75.7934375 13.125 74.5625 C12.26737432 71.8673532 12.26737432 71.8673532 10 71 C10 69.68 10 68.36 10 67 C9.01 66.67 8.02 66.34 7 66 C6.67 64.02 6.34 62.04 6 60 C1.71 59.34 -2.58 58.68 -7 58 C-7 58.66 -7 59.32 -7 60 C-8.32 60 -9.64 60 -11 60 C-12.49821059 56.62902617 -13 54.79557881 -13 51 C-13.639375 50.731875 -14.27875 50.46375 -14.9375 50.1875 C-17 49 -17 49 -18 46 C-18.69867188 45.89558594 -19.39734375 45.79117188 -20.1171875 45.68359375 C-23.42965804 44.89811632 -26.09744809 43.6142152 -29.125 42.0625 C-30.15882813 41.53785156 -31.19265625 41.01320312 -32.2578125 40.47265625 C-35 39 -35 39 -38 37 C-37.505 37.45375 -37.01 37.9075 -36.5 38.375 C-35 40 -35 40 -35 42 C-34.236875 41.938125 -33.47375 41.87625 -32.6875 41.8125 C-30 42 -30 42 -28.1875 43.5 C-27.795625 43.995 -27.40375 44.49 -27 45 C-28 46 -28 46 -31.59765625 46.09765625 C-33.08596867 46.0909822 -34.57426432 46.07902183 -36.0625 46.0625 C-36.82111328 46.05798828 -37.57972656 46.05347656 -38.36132812 46.04882812 C-40.24091871 46.0370068 -42.12046899 46.01907078 -44 46 C-41.69 46.33 -39.38 46.66 -37 47 C-37 47.66 -37 48.32 -37 49 C-39.88628401 50.57554035 -42.53342384 51.46276373 -45.75 52.125 C-46.54921875 52.29257813 -47.3484375 52.46015625 -48.171875 52.6328125 C-48.77515625 52.75398438 -49.3784375 52.87515625 -50 53 C-50.33 54.98 -50.66 56.96 -51 59 C-52.98 59 -54.96 59 -57 59 C-57 59.99 -57 60.98 -57 62 C-61.94870461 64.87924632 -66.12430228 66.91644695 -71.9453125 66.64453125 C-75.37869021 65.56752113 -76.59787663 63.32422188 -78.21484375 60.23828125 C-79.30460804 57.13163978 -79.13040724 54.26018098 -79 51 C-79.99 50.34 -80.98 49.68 -82 49 C-82 48.34 -82 47.68 -82 47 C-88.79303733 45.945908 -94.93167093 46.20485787 -101.765625 46.94140625 C-105.13916896 47.00252118 -107.07182764 46.64809701 -110 45 C-111.0625 42.125 -111.0625 42.125 -111 39 C-109.25 36.625 -109.25 36.625 -107 35 C-106.01 35 -105.02 35 -104 35 C-103.67 34.01 -103.34 33.02 -103 32 C-102.34 31.67 -101.68 31.34 -101 31 C-101.99 30.67 -102.98 30.34 -104 30 C-104 28.68 -104 27.36 -104 26 C-99.545 25.505 -99.545 25.505 -95 25 C-95 24.34 -95 23.68 -95 23 C-96.32 22.67 -97.64 22.34 -99 22 C-99 21.01 -99 20.02 -99 19 C-99.66 18.67 -100.32 18.34 -101 18 C-101 17.34 -101 16.68 -101 16 C-98.18617612 16.49655716 -95.68426106 17.1184021 -93 18.125 C-89.81132373 19.05503058 -88.14312085 18.92444731 -85 18 C-85 17.01 -85 16.02 -85 15 C-86.32 15 -87.64 15 -89 15 C-89 13.68 -89 12.36 -89 11 C-88.45730469 10.74605469 -87.91460937 10.49210937 -87.35546875 10.23046875 C-86.64003906 9.88628906 -85.92460937 9.54210937 -85.1875 9.1875 C-84.47980469 8.85105469 -83.77210938 8.51460937 -83.04296875 8.16796875 C-80.95518068 7.10418032 -80.95518068 7.10418032 -79.5 5.421875 C-77.01030385 3.06185053 -74.49854654 3.11535099 -71.17578125 2.859375 C-64.73033819 3.14478207 -54.64023071 4.35976929 -50 9 C-52.97 9.495 -52.97 9.495 -56 10 C-53.03 10 -50.06 10 -47 10 C-47 9.34 -47 8.68 -47 8 C-44.47886908 7.94552178 -41.9589415 7.90610148 -39.4375 7.875 C-38.73302734 7.85824219 -38.02855469 7.84148437 -37.30273438 7.82421875 C-32.48108178 7.77977956 -28.57702562 8.47231996 -24 10 C-23.67 8.68 -23.34 7.36 -23 6 C-22.34 6 -21.68 6 -21 6 C-21 6.66 -21 7.32 -21 8 C-20.34 8 -19.68 8 -19 8 C-18.01 9.485 -18.01 9.485 -17 11 C-16.67 10.34 -16.34 9.68 -16 9 C-14.35 9.33 -12.7 9.66 -11 10 C-12.88414293 6.23171414 -17.71050961 5.46043457 -21.4765625 4.04296875 C-26.10588647 2.6726478 -30.22503782 2.5149587 -35 3 C-35 3.99 -35 4.98 -35 6 C-35.99 6.33 -36.98 6.66 -38 7 C-38.99 6.01 -39.98 5.02 -41 4 C-39.68 2.68 -38.36 1.36 -37 0 C-42.71392502 -2.32596492 -48.09360687 -3.77874515 -54.1875 -4.6875 C-55.0132251 -4.8127002 -55.8389502 -4.93790039 -56.68969727 -5.06689453 C-68.39609059 -7.34748583 -68.39609059 -7.34748583 -79.14453125 -4.42578125 C-79.75683594 -3.95527344 -80.36914062 -3.48476562 -81 -3 C-84.25 -3.8125 -84.25 -3.8125 -87 -5 C-87 -5.66 -87 -6.32 -87 -7 C-96.14280961 -6.56408185 -105.02854522 -5.9577539 -114 -4 C-114.185625 -3.0409375 -114.185625 -3.0409375 -114.375 -2.0625 C-114.58125 -1.381875 -114.7875 -0.70125 -115 0 C-115.66 0.33 -116.32 0.66 -117 1 C-117.20625 2.093125 -117.4125 3.18625 -117.625 4.3125 C-119.08870738 8.23789706 -119.26265223 8.54610575 -122.75 10.25 C-124.16041858 10.84828225 -125.57696296 11.4323841 -127 12 C-128.03125 12.515625 -129.0625 13.03125 -130.125 13.5625 C-132.09279629 14.54639814 -134.09658116 15.46056409 -136.125 16.3125 C-139.24984146 17.83309577 -139.24984146 17.83309577 -140.875 21.1875 C-143 24 -143 24 -144.953125 24.45703125 C-147.125 24.5 -147.125 24.5 -151 24 C-153.52480693 21.47519307 -153.55738633 19.86176966 -154.125 16.375 C-154.29257813 15.37210938 -154.46015625 14.36921875 -154.6328125 13.3359375 C-154.75398438 12.56507812 -154.87515625 11.79421875 -155 11 C-164.04593254 13.68755967 -172.29967278 17.52871487 -180 23 C-179.34 22.814375 -178.68 22.62875 -178 22.4375 C-173.13766881 21.72841003 -168.7219398 21.92378763 -164.5 24.5625 C-164.005 25.036875 -163.51 25.51125 -163 26 C-164.18581958 28.66809405 -164.87403085 30.06595862 -167 32 C-170.92501539 33.42490585 -174.89498205 34.2641949 -179 35 C-176.03 31.535 -176.03 31.535 -173 28 C-176.4306283 28.55032098 -176.4306283 28.55032098 -180 30 C-181.85916824 32.96707046 -181.85916824 32.96707046 -183 36 C-183.99 36.495 -183.99 36.495 -185 37 C-184.34 37.66 -183.68 38.32 -183 39 C-184.299375 39.495 -184.299375 39.495 -185.625 40 C-190.70113405 43.00807944 -194.12947142 47.38841426 -196 53 C-195.02160156 52.54947266 -195.02160156 52.54947266 -194.0234375 52.08984375 C-185.3427065 48.31282953 -185.3427065 48.31282953 -180 50 C-180.309375 49.1028125 -180.309375 49.1028125 -180.625 48.1875 C-181 46 -181 46 -179 43 C-178.83300768 39.87478167 -178.83300768 39.87478167 -179 37 C-175.36576791 34.67409146 -172.22911669 34.83734167 -168 35 C-167.505 34.01 -167.505 34.01 -167 33 C-165.9275 33.165 -164.855 33.33 -163.75 33.5 C-159.96971248 34.08810915 -159.96971248 34.08810915 -156 34 C-156 34.99 -156 35.98 -156 37 C-154.515 37.495 -154.515 37.495 -153 38 C-154.98 38.66 -156.96 39.32 -159 40 C-159.33 39.67 -159.66 39.34 -160 39 C-161.98 39.99 -163.96 40.98 -166 42 C-165.01 42.99 -164.02 43.98 -163 45 C-163.969375 45.598125 -164.93875 46.19625 -165.9375 46.8125 C-169.23052042 48.71127509 -169.23052042 48.71127509 -170 52 C-170.45375 52.4125 -170.9075 52.825 -171.375 53.25 C-173.754217 55.81223369 -174.70045275 58.7793829 -176 62 C-176.65288627 63.34013497 -177.31225595 64.67741528 -178 66 C-177.34 66 -176.68 66 -176 66 C-176 66.66 -176 67.32 -176 68 C-177.0725 68.226875 -178.145 68.45375 -179.25 68.6875 C-183.41293906 70.14452867 -184.50911465 71.49430951 -187 75 C-187.66 75 -188.32 75 -189 75 C-189.33 77.31 -189.66 79.62 -190 82 C-187.02982306 81.37189827 -187.02982306 81.37189827 -184 80 C-182.70339566 77.50965614 -182.70339566 77.50965614 -182 75 C-181.34 74.67 -180.68 74.34 -180 74 C-180 74.99 -180 75.98 -180 77 C-179.01 76.34 -178.02 75.68 -177 75 C-174.3125 75.375 -174.3125 75.375 -172 76 C-174 78 -174 78 -176.125 78.75 C-179.52414848 80.22789065 -182.06490243 82.24588905 -184.9375 84.5625 C-187.28370388 86.19773301 -189.22971238 87.25811183 -192 88 C-194.1484375 87.20703125 -194.1484375 87.20703125 -196.375 85.8125 C-211.3159943 77.85408939 -229.50812681 79.30063743 -246 79 C-241.1841655 70.22647172 -236.14390811 61.93144206 -230 54 C-229.38253906 53.17757812 -228.76507813 52.35515625 -228.12890625 51.5078125 C-198.73624074 13.80727857 -154.3978734 -11.62492774 -107.03271484 -18.12329102 C-69.80818251 -22.34349036 -33.58450738 -16.54365777 0 0 Z " fill="#040404" transform="translate(329,78)"/>
<path d="M0 0 C4.74546599 1.70120479 7.6104932 4.31141907 11 8 C11.33 7.34 11.66 6.68 12 6 C14.64 6 17.28 6 20 6 C19.57097698 11.06247164 18.85298604 15.81876811 17.625 20.75 C15.37630348 30.04387378 14.25308906 39.52997755 13 49 C13.71542969 48.83628906 14.43085938 48.67257812 15.16796875 48.50390625 C17.95828394 48.00742258 20.4835503 47.89978067 23.3125 47.9375 C24.63701172 47.95103516 24.63701172 47.95103516 25.98828125 47.96484375 C26.98408203 47.98224609 26.98408203 47.98224609 28 48 C28.33 48.99 28.66 49.98 29 51 C27.78441406 51.31453125 26.56882812 51.6290625 25.31640625 51.953125 C23.73152456 52.38451291 22.14690213 52.81685409 20.5625 53.25 C19.76005859 53.45496094 18.95761719 53.65992188 18.13085938 53.87109375 C17.36708984 54.08378906 16.60332031 54.29648437 15.81640625 54.515625 C15.10943604 54.70415039 14.40246582 54.89267578 13.67407227 55.08691406 C11.81855894 55.85937017 11.81855894 55.85937017 11.32397461 57.86230469 C11.21706299 58.56774414 11.11015137 59.27318359 11 60 C10.67 61.216875 10.34 62.43375 10 63.6875 C9.06854772 67.38571054 8.58603294 71.02938739 8.24609375 74.82421875 C6.38779753 91.25391709 -1.14212007 109.18170731 -10 123 C-10.40734375 123.65355469 -10.8146875 124.30710937 -11.234375 124.98046875 C-18.17870171 135.82631235 -25.47606769 143.8253559 -38 148 C-44.67945357 148.81789227 -49.50131449 146.56016588 -55 143 C-59.13705384 139.32475682 -61.62140865 134.91427296 -62.3359375 129.4140625 C-62.62231219 108.96690975 -52.67887363 90.95014914 -38.71484375 76.51953125 C-35.09361982 72.96718139 -31.21493508 69.96571022 -27.0625 67.0625 C-26.33321289 66.54961426 -25.60392578 66.03672852 -24.85253906 65.50830078 C-17.15297489 60.22126672 -8.42757807 54.81374914 0.62670898 52.25878906 C3.24040111 51.20978234 3.24040111 51.20978234 3.93481445 48.47802734 C4.0762085 47.4411377 4.21760254 46.40424805 4.36328125 45.3359375 C4.60981445 43.65371094 4.60981445 43.65371094 4.86132812 41.9375 C5.01021484 40.761875 5.15910156 39.58625 5.3125 38.375 C5.48072266 37.19164062 5.64894531 36.00828125 5.82226562 34.7890625 C6.23541737 31.86158731 6.62699144 28.93281537 7 26 C6.46165527 26.47703369 5.92331055 26.95406738 5.36865234 27.44555664 C4.65660645 28.07324951 3.94456055 28.70094238 3.2109375 29.34765625 C2.50759277 29.96906494 1.80424805 30.59047363 1.07958984 31.23071289 C-4.16423719 35.6920905 -8.69590295 37.74424106 -15.6953125 37.45703125 C-20.11155844 36.58126722 -21.87696381 33.60433741 -24.3125 30.125 C-26.0085014 24.88281385 -25.19119864 20.91087722 -22.875 16.0625 C-17.27893974 5.66302257 -12.58588526 -1.45605329 0 0 Z " fill="#090909" transform="translate(205,218)"/>
<path d="M0 0 C0.78246094 -0.02578125 1.56492187 -0.0515625 2.37109375 -0.078125 C4.5625 0.25 4.5625 0.25 6.31640625 1.5234375 C8.67562014 4.79231693 8.12801936 8.46537044 7.5625 12.25 C5.38061328 20.2502513 1.91142233 26.72211534 -3.140625 33.24609375 C-5.84372498 36.78127043 -8.32116067 40.4393678 -10.8125 44.125 C-17.38378508 53.73955344 -24.22366068 62.99123516 -32.125 71.5625 C-32.5885791 72.06861816 -33.0521582 72.57473633 -33.52978516 73.09619141 C-35.46289522 75.18975998 -37.40707861 77.22221398 -39.51171875 79.14453125 C-46.15066886 85.52425988 -47.42691931 94.57763353 -49.4375 103.25 C-49.1075 103.58 -48.7775 103.91 -48.4375 104.25 C-47.9528125 103.8890625 -47.468125 103.528125 -46.96875 103.15625 C-41.86544476 99.62319253 -38.64656594 98.40809275 -32.4375 99.25 C-30.4375 100.3125 -30.4375 100.3125 -29.4375 102.25 C-28.67536684 108.09302086 -30.37626967 113.34582521 -31.76953125 119.00390625 C-32.63575105 123.21343054 -32.65514357 126.9696765 -32.4375 131.25 C-25.91036294 131.08263751 -22.16503349 127.28761152 -17.4375 123.25 C-16.69113281 122.63769531 -15.94476563 122.02539062 -15.17578125 121.39453125 C-9.9438939 116.96614492 -5.72925732 112.11825175 -1.578125 106.66796875 C1.58263849 103.09769028 4.21995002 101.44889629 8.9375 100.75 C13.35001943 101.35862337 16.68580543 102.75570998 19.5625 106.25 C20.5234375 109.12109375 20.5234375 109.12109375 20.5625 112.25 C15.93408704 119.11831006 8.72396533 123.77116844 1.6171875 127.77734375 C0.93914062 128.26332031 0.26109375 128.74929687 -0.4375 129.25 C-0.4375 130.24 -0.4375 131.23 -0.4375 132.25 C6.53413145 132.64344851 11.17518615 131.68732503 17.4375 128.6875 C18.21762451 128.32615967 18.99774902 127.96481934 19.80151367 127.5925293 C26.055587 124.63348063 31.96472536 121.33320307 37.5625 117.25 C38.5525 116.54875 39.5425 115.8475 40.5625 115.125 C43.85961108 110.38540282 44.55135489 104.86473259 45.5625 99.25 C47.2125 99.25 48.8625 99.25 50.5625 99.25 C51.5525 101.56 52.5425 103.87 53.5625 106.25 C53.94921875 105.77949219 54.3359375 105.30898437 54.734375 104.82421875 C60.77622032 97.60092348 60.77622032 97.60092348 63.5625 96.25 C67.6096022 96.32226968 69.80824716 96.65046569 73 99.1875 C74.5625 101.25 74.5625 101.25 74.5625 103.25 C73.716875 103.12625 72.87125 103.0025 72 102.875 C67.65979484 103.34847693 66.1250398 104.97293424 63.078125 107.9375 C61.5625 109.25 61.5625 109.25 59.5625 109.25 C59.3253125 109.76175781 59.088125 110.27351563 58.84375 110.80078125 C57.45748596 113.45074331 55.88097326 115.95158269 54.28686523 118.48022461 C50.41573495 124.66862969 47.4677427 129.87873799 46.5625 137.25 C45.2425 137.58 43.9225 137.91 42.5625 138.25 C40.24898209 135.84008551 39.58657724 134.49077244 39.25 131.125 C39.63134589 126.39631102 40.52080271 121.87253174 41.5625 117.25 C40.6447334 118.31155004 39.72835095 119.37429679 38.8125 120.4375 C38.30203125 121.02917969 37.7915625 121.62085938 37.265625 122.23046875 C36.03498991 123.689731 34.85867455 125.19539267 33.71875 126.7265625 C28.14288212 133.25194411 20.08772601 138.16743162 11.5625 139.25 C0.11136834 140.10964586 0.11136834 140.10964586 -4.4375 136.25 C-5.159375 135.693125 -5.88125 135.13625 -6.625 134.5625 C-9.1873981 131.29323346 -9.62591939 128.30790303 -10.4375 124.25 C-10.81519531 124.67410156 -11.19289063 125.09820312 -11.58203125 125.53515625 C-17.101594 131.41665754 -24.40527666 138.49505177 -32.875 138.9375 C-36.81783725 138.17660158 -38.12778995 137.48359407 -40.4375 134.25 C-43.54827713 124.91766862 -39.93564053 115.33921666 -37.4375 106.25 C-39.21183812 107.18084971 -40.98185149 108.11994613 -42.75 109.0625 C-43.73613281 109.58457031 -44.72226562 110.10664063 -45.73828125 110.64453125 C-50.57123722 113.5191259 -51.98165637 115.81485045 -53.4375 121.25 C-54.16780012 124.90653714 -54.82239386 128.57245051 -55.4375 132.25 C-57.0875 132.25 -58.7375 132.25 -60.4375 132.25 C-61.80892973 128.13571082 -60.89360825 124.61303225 -60.1875 120.4375 C-60.04981201 119.59251953 -59.91212402 118.74753906 -59.77026367 117.87695312 C-58.71039596 111.51413984 -57.43397531 105.22441571 -55.98828125 98.9375 C-55.33711552 96.21740712 -55.33711552 96.21740712 -55.4375 93.25 C-56.9225 94.24 -56.9225 94.24 -58.4375 95.25 C-59.7575 95.25 -61.0775 95.25 -62.4375 95.25 C-62.7421875 92.5234375 -62.7421875 92.5234375 -62.4375 89.25 C-60.3203125 86.9140625 -60.3203125 86.9140625 -57.5625 84.875 C-56.65757812 84.18664062 -55.75265625 83.49828125 -54.8203125 82.7890625 C-52.4375 81.25 -52.4375 81.25 -50.4375 81.25 C-50.32792969 80.59773438 -50.21835937 79.94546875 -50.10546875 79.2734375 C-48.52121526 72.10260593 -45.85796794 65.17376608 -43.4375 58.25 C-43.20933594 57.59112793 -42.98117187 56.93225586 -42.74609375 56.25341797 C-38.94907138 45.47908279 -33.48364249 35.94531115 -27.57910156 26.21020508 C-26.44337952 24.26009552 -25.42433782 22.2789091 -24.4375 20.25 C-23.7775 20.25 -23.1175 20.25 -22.4375 20.25 C-22.19 19.734375 -21.9425 19.21875 -21.6875 18.6875 C-21.06875 17.4809375 -21.06875 17.4809375 -20.4375 16.25 C-19.9425 15.1775 -19.4475 14.105 -18.9375 13 C-15.22151535 6.44738584 -7.65737793 0.15088429 0 0 Z " fill="#0A0A0A" transform="translate(389.4375,116.75)"/>
<path d="M0 0 C-0.67932077 26.92580488 -12.4595572 56.40697261 -32 75 C-36.61867544 78.92138662 -40.93463549 81.48910591 -47 82.5 C-51.11871443 81.8135476 -54.11045578 80.01614796 -57 77 C-61.22543841 68.50714863 -59.09921856 58.79340738 -56.58984375 50.05078125 C-49.60227523 30.54601725 -33.31641257 17.4841471 -16.1875 7.125 C-15.57769287 6.75576416 -14.96788574 6.38652832 -14.33959961 6.00610352 C-4.16723695 0 -4.16723695 0 0 0 Z " fill="#FCFCFC" transform="translate(207,278)"/>
<path d="M0 0 C1.24998779 -0.00918457 2.49997559 -0.01836914 3.7878418 -0.02783203 C18.97021098 0.0219887 34.87406233 1.05510712 46.5703125 11.8203125 C48.72577401 14.18228529 49.84974086 15.70692839 50 18.9375 C49.95875 19.700625 49.9175 20.46375 49.875 21.25 C48.555 21.25 47.235 21.25 45.875 21.25 C44.20833333 19.58333333 42.54166667 17.91666667 40.875 16.25 C32.23108429 11.76181299 22.88282443 10.89771978 13.3125 10.125 C12.30380859 10.03863281 11.29511719 9.95226562 10.25585938 9.86328125 C7.79597635 9.65343341 5.33577098 9.44911533 2.875 9.25 C2.49408203 10.99023438 2.49408203 10.99023438 2.10546875 12.765625 C1.7579012 14.34376954 1.41023983 15.92189342 1.0625 17.5 C0.89685547 18.25796875 0.73121094 19.0159375 0.56054688 19.796875 C-1.81148623 30.53815698 -4.59570092 41.15898776 -7.5625 51.75 C-7.84931641 52.78769531 -8.13613281 53.82539063 -8.43164062 54.89453125 C-9.88666644 60.09892202 -11.4395697 65.23001206 -13.2109375 70.3359375 C-15.1127292 75.95447071 -16.32506114 81.53369504 -17.3125 87.375 C-17.47685547 88.28636719 -17.64121094 89.19773437 -17.81054688 90.13671875 C-18.74177109 95.43753353 -19.40965886 100.68357349 -19.7746582 106.05419922 C-20.15565165 108.44211216 -20.9417788 110.15451973 -22.125 112.25 C-24.0625 111.875 -24.0625 111.875 -26.125 111.25 C-28.57704308 106.34591383 -27.24208261 98.70191715 -27.125 93.25 C-27.10824219 92.37601562 -27.09148437 91.50203125 -27.07421875 90.6015625 C-26.54137724 81.92385799 -23.56025854 73.54253322 -21.125 65.25 C-20.19746608 62.0654525 -19.27107234 58.88057951 -18.34585571 55.69535828 C-17.37553111 52.35546418 -16.40297416 49.01627464 -15.42382812 45.67895508 C-12.08754426 34.26416076 -8.95401515 22.80181188 -6.125 11.25 C-16.63867374 10.88745953 -26.99028617 12.18030815 -36.94140625 15.6640625 C-39.43095106 16.33209778 -41.55817966 16.41673363 -44.125 16.25 C-45.125 15.25 -45.125 15.25 -45.5 11.375 C-45.4246697 7.54000294 -45.4246697 7.54000294 -43.1875 5.375 C-39.20304501 3.91132266 -35.29659181 2.96093325 -31.125 2.25 C-30.10664062 2.06308594 -29.08828125 1.87617188 -28.0390625 1.68359375 C-18.70458527 0.2358386 -9.43921674 0.03827885 0 0 Z " fill="#080808" transform="translate(93.125,163.75)"/>
<path d="M0 0 C2 2 2 2 3 5 C4.2684375 5.5259375 4.2684375 5.5259375 5.5625 6.0625 C8 8 8 8 8.43359375 9.88671875 C8.65387535 17.72615212 6.77041188 25.41088527 5 33 C4.7215625 34.20914063 4.443125 35.41828125 4.15625 36.6640625 C-4.76633218 72.58514765 -24.5259216 102.59758594 -51 128 C-54.74020498 126.31847927 -56.56134348 124.30960527 -59 121 C-57.71480435 118.13302508 -56.42870746 116.02392288 -54 114 C-53.34 114 -52.68 114 -52 114 C-51.73058594 113.39800781 -51.46117187 112.79601562 -51.18359375 112.17578125 C-49.98959865 109.98087936 -48.91429481 108.83102449 -47.0625 107.1875 C-21.8482075 82.6022543 -8.41905088 45.64322913 -3.54614258 11.62426758 C-3.36849365 10.3998999 -3.19084473 9.17553223 -3.0078125 7.9140625 C-2.85973145 6.8204541 -2.71165039 5.7268457 -2.55908203 4.60009766 C-2 2 -2 2 0 0 Z " fill="#060606" transform="translate(422,253)"/>
<path d="M0 0 C0 0.99 0 1.98 0 3 C1.05058594 2.97679688 2.10117188 2.95359375 3.18359375 2.9296875 C22.20174165 2.62612207 22.20174165 2.62612207 26.6484375 6.3984375 C30 10.19440608 30 10.19440608 30 13 C30.66 13 31.32 13 32 13 C32 13.66 32 14.32 32 15 C32.639375 15.309375 33.27875 15.61875 33.9375 15.9375 C36 17 36 17 37 18 C39.32817964 18.36760731 41.6618385 18.70241581 44 19 C44 19.66 44 20.32 44 21 C41.11371599 22.57554035 38.46657616 23.46276373 35.25 24.125 C34.45078125 24.29257813 33.6515625 24.46015625 32.828125 24.6328125 C32.22484375 24.75398438 31.6215625 24.87515625 31 25 C30.67 26.98 30.34 28.96 30 31 C28.02 31 26.04 31 24 31 C24 31.99 24 32.98 24 34 C19.05129539 36.87924632 14.87569772 38.91644695 9.0546875 38.64453125 C5.62130979 37.56752113 4.40212337 35.32422188 2.78515625 32.23828125 C1.69539196 29.13163978 1.86959276 26.26018098 2 23 C1.01 22.34 0.02 21.68 -1 21 C-1 20.34 -1 19.68 -1 19 C-7.79303733 17.945908 -13.93167093 18.20485787 -20.765625 18.94140625 C-24.13916896 19.00252118 -26.07182764 18.64809701 -29 17 C-30.0625 14.125 -30.0625 14.125 -30 11 C-28.25 8.625 -28.25 8.625 -26 7 C-25.01 7 -24.02 7 -23 7 C-22.67 6.01 -22.34 5.02 -22 4 C-15.23398875 0.85863763 -7.39165224 0 0 0 Z " fill="#030303" transform="translate(248,106)"/>
<path d="M0 0 C1.98634908 3.57542834 3.08926056 7.35219089 4.25 11.25 C13.62536123 41.66699018 28.4005511 66.51430671 51 89 C52.33333333 90.33333333 53.66666667 91.66666667 55 93 C53.47291037 96.43595166 51.40072955 99.11912454 49 102 C29.6468222 93.27199238 15.56309912 66.84609836 6 49 C5.66661621 48.38398926 5.33323242 47.76797852 4.98974609 47.13330078 C-1.59396808 34.74187287 -10 17.09386194 -10 3 C-9.04287109 2.80083984 -9.04287109 2.80083984 -8.06640625 2.59765625 C-7.24011719 2.42105469 -6.41382812 2.24445313 -5.5625 2.0625 C-4.73878906 1.88847656 -3.91507812 1.71445312 -3.06640625 1.53515625 C-1.02338796 1.19247006 -1.02338796 1.19247006 0 0 Z " fill="#060606" transform="translate(76,280)"/>
<path d="M0 0 C2.64168921 0.35698503 4.60890736 0.752308 6.875 2.1875 C8 4 8 4 7.8203125 6.54296875 C6.75635337 11.02679651 4.94299377 14.96047139 3 19.125 C2.26787129 20.70957229 1.53859768 22.29546757 0.8125 23.8828125 C0.48894531 24.57777832 0.16539062 25.27274414 -0.16796875 25.98876953 C-1.17471028 28.2830668 -1.17471028 28.2830668 -2 32 C7.9 31.505 7.9 31.505 18 31 C17.67 31.99 17.34 32.98 17 34 C16.34 34 15.68 34 15 34 C14.505 34.99 14.505 34.99 14 36 C10.69005287 37.65497356 7.00877 37.10084335 3.375 37.0625 C2.57320313 37.05798828 1.77140625 37.05347656 0.9453125 37.04882812 C-1.03649006 37.03703168 -3.01825433 37.01909605 -5 37 C-5.17893799 37.60312012 -5.35787598 38.20624023 -5.54223633 38.82763672 C-6.93212243 43.50686735 -8.36867126 48.16824494 -9.84790039 52.82006836 C-11.95097641 59.44739553 -13.8524679 66.06037006 -15.421875 72.83984375 C-16 75 -16 75 -17 76 C-18.86277528 84.82904448 -19.95945387 94.09697803 -18 103 C-16.76450536 104.90361391 -16.76450536 104.90361391 -15 106 C-11.87450983 106.25048636 -11.87450983 106.25048636 -9 106 C-9.875 109.875 -9.875 109.875 -11 111 C-14.01541054 111.50256842 -16.13581983 111.47867908 -18.84765625 109.9765625 C-23.87295402 106.11423173 -26.03378319 102.21739513 -27 96 C-28.71879598 80.77178889 -24.55838513 67.4148088 -20 53 C-19.47229047 51.28306382 -18.94611365 49.56565538 -18.421875 47.84765625 C-17.30923154 44.22238 -16.16687444 40.60816935 -15 37 C-15.61488281 37.02320313 -16.22976563 37.04640625 -16.86328125 37.0703125 C-17.67152344 37.08835938 -18.47976563 37.10640625 -19.3125 37.125 C-20.11300781 37.14820313 -20.91351563 37.17140625 -21.73828125 37.1953125 C-24 37 -24 37 -27 35 C-26.67 33.68 -26.34 32.36 -26 31 C-21.38 30.67 -16.76 30.34 -12 30 C-11.38511719 28.33710938 -10.77023437 26.67421875 -10.13671875 24.9609375 C-9.32048849 22.76555956 -8.50407248 20.57025067 -7.6875 18.375 C-7.28337891 17.28058594 -6.87925781 16.18617188 -6.46289062 15.05859375 C-4.53824379 9.89490713 -2.62841888 4.84853967 0 0 Z " fill="#090909" transform="translate(317,155)"/>
<path d="M0 0 C16.71450205 15.86532162 26.55718413 47.73229371 30 70 C29.93353057 73.07350904 29.55705263 75.97906072 29 79 C28.8865625 79.72703125 28.773125 80.4540625 28.65625 81.203125 C27.94619473 84.88995043 27.17573054 86.82426946 24.5 89.5 C22 91 22 91 20 91 C19.93006836 90.45287354 19.86013672 89.90574707 19.78808594 89.34204102 C17.4068522 71.00998676 13.92099135 54.16405854 7 37 C6.41605469 35.53820312 6.41605469 35.53820312 5.8203125 34.046875 C5.54960937 33.37140625 5.27890625 32.6959375 5 32 C4.195625 32.185625 3.39125 32.37125 2.5625 32.5625 C1.716875 32.706875 0.87125 32.85125 0 33 C-0.33 32.67 -0.66 32.34 -1 32 C-0.94044611 30.16574023 -0.85180004 28.3324007 -0.75 26.5 C-0.6585156 20.12658692 -2.36516426 16.14069627 -6 11 C-5.65066406 10.54109375 -5.30132812 10.0821875 -4.94140625 9.609375 C-4.48636719 8.99578125 -4.03132813 8.3821875 -3.5625 7.75 C-3.11003906 7.14671875 -2.65757812 6.5434375 -2.19140625 5.921875 C-0.96099003 3.93707244 -0.43887332 2.28012345 0 0 Z " fill="#070707" transform="translate(399,140)"/>
<path d="M0 0 C0.66 0.66 1.32 1.32 2 2 C3.27714425 2.478238 4.57150498 2.91161379 5.875 3.3125 C9.80885336 4.72868721 11.83799522 6.30657517 14 10 C14 11.32 14 12.64 14 14 C15.10859375 13.566875 16.2171875 13.13375 17.359375 12.6875 C18.82278247 12.12465097 20.28633162 11.56217021 21.75 11 C22.84441406 10.57074219 22.84441406 10.57074219 23.9609375 10.1328125 C24.66992188 9.86210937 25.37890625 9.59140625 26.109375 9.3125 C26.75874023 9.06113281 27.40810547 8.80976563 28.07714844 8.55078125 C30 8 30 8 34 8 C32.47661994 12.26546416 29.86637861 13.82076842 26 16 C21.53228192 17.81960788 17.85836472 19 13 19 C12.979375 19.804375 12.95875 20.60875 12.9375 21.4375 C11.34629604 27.48407506 7.30059912 31.9481143 2.6875 36.0625 C-2.51137595 37.87606138 -7.86434447 37.90878959 -12.9375 35.75 C-15.795918 33.32467564 -17.75496587 31.36203654 -18.43359375 27.58984375 C-18.44599074 19.17229044 -16.9952245 11.59426941 -11.5 5 C-10.675 4.34 -9.85 3.68 -9 3 C-8.34 2.401875 -7.68 1.80375 -7 1.1875 C-4.46969292 -0.31486983 -2.89589765 -0.38103916 0 0 Z " fill="#0B0B0B" transform="translate(151,219)"/>
<path d="M0 0 C2.75438857 1.27083671 5.06460209 2.64909294 7 5 C7.9609375 7.87109375 7.9609375 7.87109375 8 11 C3.37158704 17.86831006 -3.83853467 22.52116844 -10.9453125 26.52734375 C-11.96238281 27.25630859 -11.96238281 27.25630859 -13 28 C-13 28.99 -13 29.98 -13 31 C-6.0276898 31.39348681 -1.38814421 30.43635813 4.875 27.4375 C5.65512451 27.07760986 6.43524902 26.71771973 7.23901367 26.34692383 C13.50428107 23.39165796 19.28013107 19.90215583 25 16 C26.66048775 14.98977319 28.32553967 13.98689432 30 13 C26.05902596 21.62590746 19.66683371 28.05752027 11.8125 33.125 C10.93996582 33.69190552 10.93996582 33.69190552 10.04980469 34.27026367 C3.24170473 38.43195184 -4.20284549 38.66764626 -12 38 C-15.75317323 36.40290501 -18.31940288 34.06353956 -21 31 C-22.87601313 25.37196061 -22.95981684 19.31846155 -20.4375 13.875 C-15.69629287 5.57366937 -10.21168504 -1.21155585 0 0 Z " fill="#0A0A0A" transform="translate(257,218)"/>
<path d="M0 0 C-0.309375 0.721875 -0.61875 1.44375 -0.9375 2.1875 C-2.0853185 4.91737642 -2.0853185 4.91737642 -2.375 7.625 C-3 10 -3 10 -4.94140625 11.3046875 C-7.6159406 13.5072452 -7.84683277 15.15121748 -8.5625 18.5 C-9.42167706 22.4703586 -10.17448371 24.18231062 -13 27 C-13 28.32 -13 29.64 -13 31 C-12.34 31 -11.68 31 -11 31 C-11 32.32 -11 33.64 -11 35 C-10.01 35 -9.02 35 -8 35 C-8 35.66 -8 36.32 -8 37 C-14.625 37.25 -14.625 37.25 -18 35 C-18 34.34 -18 33.68 -18 33 C-19.485 32.505 -19.485 32.505 -21 32 C-22.58317405 29.75068168 -23.92661674 27.41086945 -25.3046875 25.03125 C-26.84680471 22.81944635 -26.84680471 22.81944635 -29.36328125 22.22265625 C-32.03092064 21.99738892 -34.63558271 21.90180777 -37.3125 21.9375 C-38.63701172 21.95103516 -38.63701172 21.95103516 -39.98828125 21.96484375 C-40.65214844 21.97644531 -41.31601563 21.98804688 -42 22 C-42.12375 21.236875 -42.2475 20.47375 -42.375 19.6875 C-42.88102792 16.79732864 -42.88102792 16.79732864 -45 14 C-44.34 14 -43.68 14 -43 14 C-43 13.01 -43 12.02 -43 11 C-42.34 11 -41.68 11 -41 11 C-41 10.34 -41 9.68 -41 9 C-35.097207 5.34389653 -29.8417181 3.14477567 -23 2 C-22.175 1.814375 -21.35 1.62875 -20.5 1.4375 C-13.64386982 0.23767722 -6.95397086 -0.11038049 0 0 Z " fill="#070707" transform="translate(205,137)"/>
<path d="M0 0 C-0.30581581 6.60562155 -1.64917776 11.33013363 -5 17 C-5.76763672 18.34771484 -5.76763672 18.34771484 -6.55078125 19.72265625 C-16.52970391 36.62485715 -28.93703596 52.38580898 -42 67 C-44.75841543 59.25103035 -38.3179417 48.90748618 -35.04736328 41.99316406 C-14.43234458 0 -14.43234458 0 0 0 Z " fill="#F8F8F8" transform="translate(392,122)"/>
<path d="M0 0 C3.18707269 1.22483578 3.80293364 2.10912321 6 5 C7.03600577 9.93721498 6.7644733 13.70830373 4.1875 18.0625 C0.50887034 21.32071484 -3.07429342 21.3312354 -7.7734375 21.29296875 C-11.06805697 20.85946619 -12.76517216 19.37450458 -15 17 C-16.72869779 13.54260443 -16.48966895 9.78024432 -16 6 C-11.89755861 -0.56390623 -7.31484414 -0.93952127 0 0 Z " fill="#0E0E0E" transform="translate(267,411)"/>
<path d="M0 0 C0.50367757 1.45706726 1.00282556 2.91570096 1.5 4.375 C1.7784375 5.18710938 2.056875 5.99921875 2.34375 6.8359375 C3 9 3 9 3 11 C2.34 11 1.68 11 1 11 C0.67 11.99 0.34 12.98 0 14 C-2.5625 15.1875 -2.5625 15.1875 -5 16 C-5 16.66 -5 17.32 -5 18 C-10.66507011 21.08900201 -15.50857435 23.57664615 -22 24 C-21.66865055 16.37896259 -18.18856965 10.27138964 -12.89453125 4.83984375 C-5.87100162 -1.39050038 -5.87100162 -1.39050038 0 0 Z " fill="#F5F5F5" transform="translate(208,224)"/>
<path d="M0 0 C1.98 0 3.96 0 6 0 C5.08381221 11.2233004 1.35519178 22.02815838 -2.06225586 32.70117188 C-4.70047719 41.044178 -6.8350414 49.52441741 -9 58 C-9.33 58 -9.66 58 -10 58 C-10.76875913 46.44014043 -9.70724959 35.83306925 -7.25 24.5 C-6.99782715 23.33243164 -6.7456543 22.16486328 -6.48583984 20.96191406 C-4.84045844 13.75015501 -2.71030651 6.88188225 0 0 Z " fill="#0C0C0C" transform="translate(72,182)"/>
<path d="M0 0 C-1.15173355 2.46800047 -2.04783565 4.04783565 -4 6 C-0.7 5.34 2.6 4.68 6 4 C5.67 5.32 5.34 6.64 5 8 C3.9275 7.979375 2.855 7.95875 1.75 7.9375 C-1.14790424 7.9857984 -3.28612141 8.13155885 -6 9 C-5.79375 10.0725 -5.5875 11.145 -5.375 12.25 C-5.00297123 15.97028775 -5.09840395 16.97981805 -7 20 C-7 20.66 -7 21.32 -7 22 C-8.2684375 21.9071875 -8.2684375 21.9071875 -9.5625 21.8125 C-13.58958382 22.03215912 -16.35027608 23.34729483 -20 25 C-20.99 25 -21.98 25 -23 25 C-22.36188709 21.30929287 -20.74379833 18.80750645 -18.625 15.75 C-18.01914063 14.85796875 -17.41328125 13.9659375 -16.7890625 13.046875 C-15.90347656 12.03367187 -15.90347656 12.03367187 -15 11 C-14.01 11 -13.02 11 -12 11 C-12.66 10.34 -13.32 9.68 -14 9 C-13.360625 8.773125 -12.72125 8.54625 -12.0625 8.3125 C-9.72912652 7.16822177 -9.72912652 7.16822177 -9.4375 4.5 C-9.293125 3.675 -9.14875 2.85 -9 2 C-5.5647952 -0.29013653 -4.014669 -0.17842973 0 0 Z " fill="#EBEBEB" transform="translate(156,106)"/>
<path d="M0 0 C1.17192435 3.12305373 2.33663876 6.24874739 3.5 9.375 C3.83386719 10.26445312 4.16773438 11.15390625 4.51171875 12.0703125 C4.82753906 12.92109375 5.14335937 13.771875 5.46875 14.6484375 C5.90864258 15.82672119 5.90864258 15.82672119 6.35742188 17.02880859 C7 19 7 19 7 21 C1.41476324 20.55628006 -1.88186837 19.16227295 -6.4375 15.9375 C-7.48808594 15.20402344 -8.53867187 14.47054688 -9.62109375 13.71484375 C-10.40613281 13.14894531 -11.19117188 12.58304687 -12 12 C-11.6390625 12.84304688 -11.278125 13.68609375 -10.90625 14.5546875 C-10.21015625 16.19824219 -10.21015625 16.19824219 -9.5 17.875 C-9.0359375 18.96554687 -8.571875 20.05609375 -8.09375 21.1796875 C-7 24 -7 24 -7 26 C-8.32 26.33 -9.64 26.66 -11 27 C-12.17495143 24.06574629 -13.33850852 21.12710487 -14.5 18.1875 C-14.83386719 17.35412109 -15.16773438 16.52074219 -15.51171875 15.66210938 C-15.82753906 14.85966797 -16.14335937 14.05722656 -16.46875 13.23046875 C-16.76201172 12.49207764 -17.05527344 11.75368652 -17.35742188 10.99291992 C-18 9 -18 9 -18 6 C-12.78760951 5.28242425 -9.79400365 7.68338678 -5.6875 10.5 C-5.04232422 10.92925781 -4.39714844 11.35851562 -3.73242188 11.80078125 C-2.14810408 12.85699311 -0.57309512 13.92714487 1 15 C0.6390625 14.15695312 0.278125 13.31390625 -0.09375 12.4453125 C-0.5578125 11.34960938 -1.021875 10.25390625 -1.5 9.125 C-1.9640625 8.03445313 -2.428125 6.94390625 -2.90625 5.8203125 C-4 3 -4 3 -4 1 C-2 0 -2 0 0 0 Z " fill="#121212" transform="translate(316,397)"/>
<path d="M0 0 C0.66 0 1.32 0 2 0 C2.721875 0.78375 3.44375 1.5675 4.1875 2.375 C7.55551466 5.51848035 9.58355591 6.04743363 14 7 C12.72776597 12.79573281 9.79623148 16.62590692 5 20 C2.13237713 20.91011435 0.06193814 21 -3 21 C-4.59399326 19.40600674 -4.2470667 17.77001275 -4.3125 15.5625 C-4.28738842 9.761726 -2.4688428 5.18016123 0 0 Z " fill="#F9F9F9" transform="translate(143,231)"/>
<path d="M0 0 C0.57073242 0.37342529 1.14146484 0.74685059 1.72949219 1.1315918 C1.27823113 4.02868777 0.81876587 6.92407752 0.35449219 9.8190918 C0.22816406 10.63571289 0.10183594 11.45233398 -0.02832031 12.29370117 C-0.70658932 16.48201231 -1.45452986 20.25487365 -3.27050781 24.1315918 C-4.26050781 23.8015918 -5.25050781 23.4715918 -6.27050781 23.1315918 C-6.12613281 22.2447168 -5.98175781 21.3578418 -5.83300781 20.4440918 C-6.31613486 16.78612983 -6.58883428 16.3747297 -9.33300781 14.1940918 C-12.44498089 12.19988864 -13.28405979 12.13223713 -17.20800781 12.3190918 C-18.21863281 12.5872168 -19.22925781 12.8553418 -20.27050781 13.1315918 C-20.27050781 12.1415918 -20.27050781 11.1515918 -20.27050781 10.1315918 C-17.62023895 7.82624883 -14.52108894 6.13462746 -11.52050781 4.3190918 C-10.69550781 3.7912207 -9.87050781 3.26334961 -9.02050781 2.71948242 C-8.22128906 2.2302832 -7.42207031 1.74108398 -6.59863281 1.23706055 C-5.86547852 0.78484131 -5.13232422 0.33262207 -4.37695312 -0.13330078 C-2.27050781 -0.8684082 -2.27050781 -0.8684082 0 0 Z " fill="#141414" transform="translate(149.2705078125,379.868408203125)"/>
<path d="M0 0 C0.474375 0.474375 0.94875 0.94875 1.4375 1.4375 C0.25168042 4.10559405 -0.43653085 5.50345862 -2.5625 7.4375 C-6.48751539 8.86240585 -10.45748205 9.7016949 -14.5625 10.4375 C-12.5825 8.1275 -10.6025 5.8175 -8.5625 3.4375 C-11.9931283 3.98782098 -11.9931283 3.98782098 -15.5625 5.4375 C-16.57872658 7.42930409 -17.57962992 9.42902635 -18.5625 11.4375 C-21.4375 12.5625 -21.4375 12.5625 -24.5625 12.4375 C-27.4375 10.5 -27.4375 10.5 -29.5625 8.4375 C-28.29363036 7.31028564 -27.02232438 6.18581342 -25.75 5.0625 C-25.04230469 4.43601562 -24.33460938 3.80953125 -23.60546875 3.1640625 C-16.89631981 -2.50600219 -7.82073138 -4.76873864 0 0 Z " fill="#141414" transform="translate(164.5625,102.5625)"/>
<path d="M0 0 C0.99 0.33 1.98 0.66 3 1 C3 1.66 3 2.32 3 3 C1.25 4.5078125 1.25 4.5078125 -1 6.125 C-1.7425 6.66382813 -2.485 7.20265625 -3.25 7.7578125 C-3.8275 8.16773438 -4.405 8.57765625 -5 9 C-4.67 9.99 -4.34 10.98 -4 12 C-1.41022723 11.53754058 -0.03496141 11.02754535 2.0625 9.375 C3.0215625 8.694375 3.0215625 8.694375 4 8 C4.99 8.33 5.98 8.66 7 9 C5.61122646 12.35620271 4.08322035 14.07298728 1 16 C0.34 16 -0.32 16 -1 16 C-0.01 17.32 0.98 18.64 2 20 C4.72074461 19.01750889 6.84737026 18.12120597 9.125 16.3125 C9.74375 15.879375 10.3625 15.44625 11 15 C11.99 15.33 12.98 15.66 14 16 C14 16.66 14 17.32 14 18 C12.217871 19.44074715 10.37339724 20.80510649 8.5 22.125 C7.4790625 22.84945313 6.458125 23.57390625 5.40625 24.3203125 C4.6121875 24.87460937 3.818125 25.42890625 3 26 C-1.56642429 24.4493407 -3.65813464 20.8397192 -6.3125 17.0625 C-6.77978516 16.42892578 -7.24707031 15.79535156 -7.72851562 15.14257812 C-8.90675744 13.48747035 -9.96328776 11.74724448 -11 10 C-9.75330996 6.25992989 -8.31486492 5.48752843 -5.125 3.25 C-4.24070312 2.61578125 -3.35640625 1.9815625 -2.4453125 1.328125 C-1.23488281 0.67070312 -1.23488281 0.67070312 0 0 Z " fill="#141413" transform="translate(351,375)"/>
<path d="M0 0 C2.9375 2.0625 2.9375 2.0625 5 5 C5.06641554 8.85210127 4.87229157 10.99848005 2.3125 13.9375 C-0.7864448 15.3613395 -2.62182812 15.55153827 -6 15 C-8.9375 12.9375 -8.9375 12.9375 -11 10 C-11.06641554 6.14789873 -10.87229157 4.00151995 -8.3125 1.0625 C-5.2135552 -0.3613395 -3.37817188 -0.55153827 0 0 Z " fill="#F4F3EE" transform="translate(265,414)"/>
<path d="M0 0 C3.9881741 0.56973916 6.62446673 1.83619662 10 4 C11.32608822 4.68096422 12.65686601 5.35330586 14 6 C14 5.34 14 4.68 14 4 C14.639375 4.309375 15.27875 4.61875 15.9375 4.9375 C19.92049104 6.31935403 23.81650849 6.6536543 28 7 C27.67 7.99 27.34 8.98 27 10 C22.06959397 10.08964375 17.34545051 9.88777366 12.453125 9.2890625 C7.97856557 8.7618055 3.48791747 8.39426565 -1 8 C-1 7.01 -1 6.02 -1 5 C-2.21236328 5.2165625 -2.21236328 5.2165625 -3.44921875 5.4375 C-4.51785156 5.623125 -5.58648437 5.80875 -6.6875 6 C-7.74324219 6.185625 -8.79898438 6.37125 -9.88671875 6.5625 C-12.64904062 6.95068074 -15.21742043 7.08259976 -18 7 C-17.360625 6.71125 -16.72125 6.4225 -16.0625 6.125 C-13.84793921 5.17176549 -13.84793921 5.17176549 -13 3 C-8.54569773 1.42789332 -4.71334503 0.77008073 0 1 C0 0.67 0 0.34 0 0 Z " fill="#E6E6E6" transform="translate(249,101)"/>
<path d="M0 0 C4.562419 0.02466172 6.80222978 1.50428383 10.3125 4.3125 C9.9825 5.3025 9.6525 6.2925 9.3125 7.3125 C8.590625 7.003125 7.86875 6.69375 7.125 6.375 C4.50942691 5.38689461 2.06131018 4.7837246 -0.6875 4.3125 C-0.63186349 6.14718832 -0.63186349 6.14718832 0.3125 8.3125 C1.859375 9.4571875 1.859375 9.4571875 3.4375 10.625 C4.38625 11.511875 5.335 12.39875 6.3125 13.3125 C6.21080508 19.41419492 6.21080508 19.41419492 4.3125 21.3125 C0.49176423 21.8755558 -3.20106766 22.17306609 -6.6171875 20.1953125 C-8.25 18.8125 -8.25 18.8125 -10.6875 16.3125 C-10.3575 15.3225 -10.0275 14.3325 -9.6875 13.3125 C-7.19388429 14.51631448 -5.00606917 15.76678722 -2.6875 17.3125 C-1.3675 17.3125 -0.0475 17.3125 1.3125 17.3125 C1.25686349 15.47781168 1.25686349 15.47781168 0.3125 13.3125 C-1.234375 12.1678125 -1.234375 12.1678125 -2.8125 11 C-3.76125 10.113125 -4.71 9.22625 -5.6875 8.3125 C-5.55680693 0.47091584 -5.55680693 0.47091584 0 0 Z " fill="#0F0F0F" transform="translate(183.6875,399.6875)"/>
<path d="M0 0 C7.52580673 0.01093867 14.12967443 3.41559414 20.875 6.4375 C20.875 7.4275 20.875 8.4175 20.875 9.4375 C17.905 8.9425 17.905 8.9425 14.875 8.4375 C14.545 9.4275 14.215 10.4175 13.875 11.4375 C13.215 9.7875 12.555 8.1375 11.875 6.4375 C11.215 6.4375 10.555 6.4375 9.875 6.4375 C9.875 5.7775 9.875 5.1175 9.875 4.4375 C9.215 4.4375 8.555 4.4375 7.875 4.4375 C7.875 6.0875 7.875 7.7375 7.875 9.4375 C0 8.5625 0 8.5625 -1.125 7.4375 C-2.81108966 7.36544489 -4.50000659 7.35363932 -6.1875 7.375 C-7.10660156 7.38402344 -8.02570313 7.39304687 -8.97265625 7.40234375 C-9.68292969 7.41394531 -10.39320313 7.42554687 -11.125 7.4375 C-9.125 6.4375 -7.125 5.4375 -5.125 4.4375 C-5.125 3.4475 -5.125 2.4575 -5.125 1.4375 C-3.57673214 -0.11076786 -2.16192295 0.11772848 0 0 Z " fill="#EDEDED" transform="translate(298.125,79.5625)"/>
<path d="M0 0 C-1.01549581 6.09297484 -6.36038501 9.57900034 -10.8125 13.4375 C-13 15 -13 15 -15 15 C-14.49353463 10.60543896 -13.04647166 8.46599839 -10.0625 5.25 C-8.99708984 4.08210937 -8.99708984 4.08210937 -7.91015625 2.890625 C-4.99236411 0.00266713 -4.29375207 0 0 0 Z " fill="#F2F2F2" transform="translate(403,223)"/>
<path d="M0 0 C-1.01549581 6.09297484 -6.36038501 9.57900034 -10.8125 13.4375 C-13 15 -13 15 -15 15 C-14.49353463 10.60543896 -13.04647166 8.46599839 -10.0625 5.25 C-8.99708984 4.08210937 -8.99708984 4.08210937 -7.91015625 2.890625 C-4.99236411 0.00266713 -4.29375207 0 0 0 Z " fill="#F2F2F2" transform="translate(258,223)"/>
<path d="M0 0 C0.99 0.66 1.98 1.32 3 2 C3 2.99 3 3.98 3 5 C1.68 5 0.36 5 -1 5 C-1 4.34 -1 3.68 -1 3 C-2.21236328 3.2165625 -2.21236328 3.2165625 -3.44921875 3.4375 C-4.51785156 3.623125 -5.58648437 3.80875 -6.6875 4 C-7.74324219 4.185625 -8.79898438 4.37125 -9.88671875 4.5625 C-12.64904062 4.95068074 -15.21742043 5.08259976 -18 5 C-17.360625 4.71125 -16.72125 4.4225 -16.0625 4.125 C-13.84793921 3.17176549 -13.84793921 3.17176549 -13 1 C-8.27740641 -0.75939761 -4.88446528 -1.3321269 0 0 Z " fill="#E9E9E9" transform="translate(249,103)"/>
<path d="M0 0 C1.85776765 3.13498292 2.20140476 5.37471432 2 9 C-0.33294775 9.04241723 -2.66702567 9.04092937 -5 9 C-6 8 -6 8 -6.25 5.625 C-6 3 -6 3 -4.6875 1.1875 C-3 0 -3 0 0 0 Z " fill="#E5E5E5" transform="translate(157,225)"/>
<path d="M0 0 C0.99 0 1.98 0 3 0 C2.02839879 6.1939577 2.02839879 6.1939577 -0.87890625 8.47265625 C-2.30492727 9.30684028 -3.75304132 10.10463605 -5.22265625 10.859375 C-7.33225648 11.95074403 -7.33225648 11.95074403 -8 15 C-10.3125 16.75 -10.3125 16.75 -13 18 C-15.16796875 17.578125 -15.16796875 17.578125 -17 17 C-9.38055049 11.1983887 -9.38055049 11.1983887 -5.5 8.8125 C-4.675 8.214375 -3.85 7.61625 -3 7 C-3 6.01 -3 5.02 -3 4 C-1.6875 1.8125 -1.6875 1.8125 0 0 Z " fill="#7A7A7A" transform="translate(130,115)"/>
<path d="M0 0 C0.33 0.99 0.66 1.98 1 3 C1.99 2.34 2.98 1.68 4 1 C6.6875 1.375 6.6875 1.375 9 2 C6.71603484 4.28396516 4.98961509 4.80415396 2 6 C-0.36930014 7.27804572 -2.67890363 8.63464919 -5 10 C-5.99 9.34 -6.98 8.68 -8 8 C-6.824375 7.6596875 -6.824375 7.6596875 -5.625 7.3125 C-2.78943005 6.22711327 -2.78943005 6.22711327 -1.75 3.4375 C-1.5025 2.633125 -1.255 1.82875 -1 1 C-0.67 0.67 -0.34 0.34 0 0 Z " fill="#262626" transform="translate(148,152)"/>
<path d="M0 0 C0 0.33 0 0.66 0 1 C-4.455 1.495 -4.455 1.495 -9 2 C-9 2.99 -9 3.98 -9 5 C-9.99 5.33 -10.98 5.66 -12 6 C-12.99 5.01 -13.98 4.02 -15 3 C-9.70956389 -2.65529378 -7.01085067 -1.95384363 0 0 Z " fill="#1E1E1E" transform="translate(303,79)"/>
<path d="M0 0 C-0.66 2.97 -1.32 5.94 -2 9 C-4 8 -6 7 -8 6 C-6.72879117 2.18637351 -4.19078006 0 0 0 Z " fill="#EAE9E4" transform="translate(147,384)"/>
<path d="M0 0 C-0.33 2.31 -0.66 4.62 -1 7 C-3.31 6.67 -5.62 6.34 -8 6 C-8 4 -8 4 -6.25 1.875 C-4 0 -4 0 0 0 Z " fill="#090909" transform="translate(339,172)"/>
<path d="M0 0 C0.99 0.99 1.98 1.98 3 3 C3.66 2.01 4.32 1.02 5 0 C5.63451048 4.04500429 6.1137466 7.90512249 6 12 C6 12.99 6 13.98 6 15 C3.36177976 11.89621148 2.29634269 9.18537076 1.3125 5.25 C1.06113281 4.26515625 0.80976563 3.2803125 0.55078125 2.265625 C0.36902344 1.51796875 0.18726563 0.7703125 0 0 Z " fill="#313131" transform="translate(334,149)"/>
<path d="M0 0 C4.95 0 9.9 0 15 0 C15 0.99 15 1.98 15 3 C14.01 3.66 13.02 4.32 12 5 C8.8125 4.125 8.8125 4.125 6 3 C6 2.34 6 1.68 6 1 C4.02 1 2.04 1 0 1 C0 0.67 0 0.34 0 0 Z " fill="#292929" transform="translate(236,70)"/>
<path d="M0 0 C0 3 0 3 -1 5 C0.32 4.67 1.64 4.34 3 4 C2.34 5.65 1.68 7.3 1 9 C-1.91517292 7.92598892 -3.77810176 7.22189824 -6 5 C-4.02 3.35 -2.04 1.7 0 0 Z " fill="#CDCDCD" transform="translate(141,106)"/>
<path d="M0 0 C0.66 0.33 1.32 0.66 2 1 C1.34 1.66 0.68 2.32 0 3 C-0.16681109 6.08347826 -0.16681109 6.08347826 0 9 C-0.99 9.495 -0.99 9.495 -2 10 C-2 9.34 -2 8.68 -2 8 C-3.32 8.33 -4.64 8.66 -6 9 C-4.83857315 4.64464931 -3.92300495 2.35380297 0 0 Z " fill="#393939" transform="translate(146,102)"/>
<path d="M0 0 C-1.15173355 2.46800047 -2.04783565 4.04783565 -4 6 C-5.32 6 -6.64 6 -8 6 C-7.67 4.35 -7.34 2.7 -7 1 C-2.25 0 -2.25 0 0 0 Z " fill="#222222" transform="translate(287,137)"/>
<path d="M0 0 C3.34373475 0.55728913 6.03312999 1.35173889 9 3 C9 3.66 9 4.32 9 5 C5.98968256 5.93423645 5.13349732 6.04449911 2 5 C2 4.34 2 3.68 2 3 C1.34 2.67 0.68 2.34 0 2 C0 1.34 0 0.68 0 0 Z " fill="#2B2B2B" transform="translate(228,94)"/>
<path d="M0 0 C0.99 0 1.98 0 3 0 C2.3125 3.375 2.3125 3.375 1 7 C-1.625 8.4375 -1.625 8.4375 -4 9 C-3.67 8.401875 -3.34 7.80375 -3 7.1875 C-1.79212012 4.94613529 -1.79212012 4.94613529 -2 2 C-1.34 1.34 -0.68 0.68 0 0 Z " fill="#E9E9E9" transform="translate(130,115)"/>
<path d="M0 0 C0.33 1.32 0.66 2.64 1 4 C0.01 4 -0.98 4 -2 4 C-2 4.99 -2 5.98 -2 7 C-4.97 6.505 -4.97 6.505 -8 6 C-5.63379989 3.38472619 -3.057952 1.73559438 0 0 Z " fill="#BABABA" transform="translate(170,115)"/>
<path d="M0 0 C4 2 8 4 12 6 C12 6.99 12 7.98 12 9 C10 8 10 8 8 6 C5.42938689 5.35232207 5.42938689 5.35232207 3 5 C3 4.34 3 3.68 3 3 C2.01 2.67 1.02 2.34 0 2 C0 1.34 0 0.68 0 0 Z " fill="#B3B3B3" transform="translate(291,115)"/>
<path d="M0 0 C-0.33 1.32 -0.66 2.64 -1 4 C-3.97 4 -6.94 4 -10 4 C-10 3.34 -10 2.68 -10 2 C-8.7090864 1.66376204 -7.41723903 1.33110751 -6.125 1 C-5.40570313 0.814375 -4.68640625 0.62875 -3.9453125 0.4375 C-2 0 -2 0 0 0 Z " fill="#F0F0F0" transform="translate(162,110)"/>
<path d="M0 0 C0.66 0.33 1.32 0.66 2 1 C1.34 1.66 0.68 2.32 0 3 C-0.99 3 -1.98 3 -3 3 C-3.33 3.99 -3.66 4.98 -4 6 C-5.175625 6.2165625 -5.175625 6.2165625 -6.375 6.4375 C-8.96421018 6.87798925 -8.96421018 6.87798925 -11 8 C-10 5 -10 5 -7.78515625 3.578125 C-6.88667969 3.13984375 -5.98820313 2.7015625 -5.0625 2.25 C-4.16660156 1.80140625 -3.27070313 1.3528125 -2.34765625 0.890625 C-1.18556641 0.44976562 -1.18556641 0.44976562 0 0 Z " fill="#969696" transform="translate(162,142)"/>
<path d="M0 0 C2.475 0.495 2.475 0.495 5 1 C5.33 2.32 5.66 3.64 6 5 C4.68 5.33 3.36 5.66 2 6 C0 1.125 0 1.125 0 0 Z " fill="#818181" transform="translate(249,101)"/>
<path d="M0 0 C-2.55068845 2.35448165 -3.71017358 2.98327924 -7.25 3.1875 C-8.1575 3.125625 -9.065 3.06375 -10 3 C-10.33 2.34 -10.66 1.68 -11 1 C-7.32589215 -0.17571451 -3.83070817 -0.07366746 0 0 Z " fill="#272727" transform="translate(218,89)"/>
<path d="M0 0 C2.31 0.66 4.62 1.32 7 2 C7 2.99 7 3.98 7 5 C4.69 4.34 2.38 3.68 0 3 C0 2.01 0 1.02 0 0 Z " fill="#D4D4D4" transform="translate(312,84)"/>
<path d="M0 0 C1 3 1 3 1 7 C-0.98 7.66 -2.96 8.32 -5 9 C-3.50163895 5.88801935 -1.80066242 2.9465385 0 0 Z " fill="#4F4F4F" transform="translate(386,161)"/>
<path d="M0 0 C2.475 0.495 2.475 0.495 5 1 C4.34 2.98 3.68 4.96 3 7 C2.34 7 1.68 7 1 7 C0.67 4.69 0.34 2.38 0 0 Z " fill="#4B4B4B" transform="translate(312,87)"/>
<path d="M0 0 C0 0.33 0 0.66 0 1 C-3.3 1.33 -6.6 1.66 -10 2 C-10.33 1.01 -10.66 0.02 -11 -1 C-6.74938644 -2.41687119 -4.28148375 -1.19320039 0 0 Z " fill="#3C3C3C" transform="translate(303,79)"/>
<path d="M0 0 C0.33 0.99 0.66 1.98 1 3 C0.01 4.485 0.01 4.485 -1 6 C-2.32 5.67 -3.64 5.34 -5 5 C-3.35 3.35 -1.7 1.7 0 0 Z " fill="#161616" transform="translate(357,198)"/>
<path d="M0 0 C1.32 0 2.64 0 4 0 C4 0.99 4 1.98 4 3 C4.99 3.33 5.98 3.66 7 4 C5.02 4.66 3.04 5.32 1 6 C1.20625 5.38125 1.4125 4.7625 1.625 4.125 C1.74875 3.42375 1.8725 2.7225 2 2 C1.34 1.34 0.68 0.68 0 0 Z " fill="#454545" transform="translate(169,112)"/>
</svg>
